<?xml version="1.0" encoding="UTF-8" standalone="no"?>
<svg
   xmlns:dc="http://purl.org/dc/elements/1.1/"
   xmlns:cc="http://creativecommons.org/ns#"
   xmlns:rdf="http://www.w3.org/1999/02/22-rdf-syntax-ns#"
   xmlns:svg="http://www.w3.org/2000/svg"
   xmlns="http://www.w3.org/2000/svg"
   xmlns:sodipodi="http://sodipodi.sourceforge.net/DTD/sodipodi-0.dtd"
   xmlns:inkscape="http://www.inkscape.org/namespaces/inkscape"
   viewBox="-2 -256 1810 1810"
   id="svg2"
   version="1.1"
   inkscape:version="0.48.3.1 r9886"
   width="100%"
   height="100%"
   sodipodi:docname="warning_sign_font_awesome.svg">
  <metadata
     id="metadata12">
    <rdf:RDF>
      <cc:Work
         rdf:about="">
        <dc:format>image/svg+xml</dc:format>
        <dc:type
           rdf:resource="http://purl.org/dc/dcmitype/StillImage" />
      </cc:Work>
    </rdf:RDF>
  </metadata>
  <defs
     id="defs10" />
  <sodipodi:namedview
     pagecolor="#ffffff"
     bordercolor="#666666"
     borderopacity="1"
     objecttolerance="10"
     gridtolerance="10"
     guidetolerance="10"
     inkscape:pageopacity="0"
     inkscape:pageshadow="2"
     inkscape:window-width="1024"
     inkscape:window-height="719"
     id="namedview8"
     showgrid="false"
     inkscape:zoom="0.13169643"
     inkscape:cx="156.80493"
     inkscape:cy="243.77216"
     inkscape:window-x="0"
     inkscape:window-y="25"
     inkscape:window-maximized="1"
     inkscape:current-layer="svg2" />
  <g
     transform="matrix(1,0,0,-1,7.5932254,1333.7966)"
     id="g4">
    <path
       d="m 1024,161 v 190 q 0,14 -9.5,23.5 Q 1005,384 992,384 H 800 q -13,0 -22.5,-9.5 Q 768,365 768,351 V 161 q 0,-14 9.5,-23.5 Q 787,128 800,128 h 192 q 13,0 22.5,9.5 9.5,9.5 9.5,23.5 z m -2,374 18,459 q 0,12 -10,19 -13,11 -24,11 H 786 q -11,0 -24,-11 -10,-7 -10,-21 l 17,-457 q 0,-10 10,-16.5 10,-6.5 24,-6.5 h 185 q 14,0 23.5,6.5 9.5,6.5 10.5,16.5 z m -14,934 768,-1408 q 35,-63 -2,-126 -17,-29 -46.5,-46 -29.5,-17 -63.5,-17 H 128 q -34,0 -63.5,17 Q 35,-94 18,-65 -19,-2 16,61 l 768,1408 q 17,31 47,49 30,18 65,18 35,0 65,-18 30,-18 47,-49 z"
       id="path6"
       inkscape:connector-curvature="0"
       style="fill:red" />
  </g>
</svg>
